<svg width="53" height="58" viewBox="0 0 53 58" fill="none" xmlns="http://www.w3.org/2000/svg">
<path fill-rule="evenodd" clip-rule="evenodd" d="M52.9757 13.6737C52.9757 13.4534 52.9271 13.233 52.8299 13.0249C52.6355 12.6087 52.2588 12.3271 51.8457 12.2415L27.0954 0.146897C26.6944 -0.0489658 26.2205 -0.0489658 25.8196 0.146897L0.826226 12.3516C0.340211 12.5842 0.0243008 13.0739 0 13.6247V13.637V13.6859V44.3141C0 44.8772 0.31591 45.3913 0.826226 45.6361L25.8196 57.8409C25.8317 57.8409 25.8317 57.8409 25.8439 57.8531C25.8803 57.8653 25.9168 57.8776 25.9532 57.9021C25.9583 57.9021 25.9633 57.9042 25.9692 57.9066C25.9775 57.9101 25.9876 57.9143 26.0018 57.9143L26.1112 57.951L26.1144 57.9513C26.1162 57.9516 26.118 57.9521 26.1198 57.9528L26.1236 57.9543L26.1294 57.9572C26.1355 57.9602 26.1416 57.9633 26.1476 57.9633C26.1659 57.9694 26.1871 57.9725 26.2084 57.9755C26.2297 57.9786 26.2509 57.9816 26.2691 57.9878H26.3056C26.3299 57.9878 26.3572 57.9908 26.3845 57.9939L26.3846 57.9939C26.4119 57.9969 26.4392 58 26.4635 58C26.5121 58 26.5729 58 26.6215 57.9878H26.658C26.6944 57.9878 26.743 57.9755 26.7795 57.9633C26.7826 57.9633 26.7858 57.9624 26.789 57.9612C26.7918 57.9601 26.7947 57.9586 26.7976 57.9572L26.7977 57.9572C26.8038 57.9541 26.8098 57.951 26.8159 57.951L26.9253 57.9143C26.9303 57.9143 26.9353 57.9122 26.9412 57.9098C26.9496 57.9063 26.9596 57.9021 26.9739 57.9021C27.0103 57.8898 27.0468 57.8776 27.0832 57.8531C27.0954 57.8531 27.0954 57.8531 27.1075 57.8409L52.1738 45.5994C52.6719 45.3546 53 44.8404 53 44.2773V13.7104C52.9757 13.6982 52.9757 13.6859 52.9757 13.6737ZM26.4514 3.09709L48.1277 13.6859L40.1449 17.591L18.4686 7.00211L26.4514 3.09709ZM4.7751 13.6859L26.4514 24.2748L36.8035 19.2191L15.1272 8.63022L4.7751 13.6859ZM2.91609 16.0485L24.9934 26.8333V54.1684L2.91609 43.3837V16.0485ZM27.9094 26.8333V54.1684L50.0596 43.3347V15.9996L41.1898 20.3331V28.9143C41.1898 29.7222 40.5337 30.3833 39.7318 30.3833C38.9298 30.3833 38.2737 29.7222 38.2737 28.9143V21.7653L27.9094 26.8333Z" fill="#4C4C4C"/>
</svg>
