<svg width="59" height="59" viewBox="0 0 59 59" fill="none" xmlns="http://www.w3.org/2000/svg">
<path fill-rule="evenodd" clip-rule="evenodd" d="M29.4893 0C37.6326 0 45.0057 3.31 50.3579 8.63857C55.6886 13.99 59 21.36 59 29.5C59 37.64 55.6886 45.01 50.3579 50.3614C45.0042 55.69 37.6326 59 29.4893 59C21.3459 59 13.9743 55.69 8.64356 50.3614C3.28993 45.01 0 37.6414 0 29.5C0 21.36 3.2885 13.99 8.64213 8.63857C13.9743 3.31 21.3459 0 29.4893 0ZM44.5298 27.89C45.4144 27.89 46.1176 28.6157 46.1176 29.5C46.1176 30.3843 45.4144 31.11 44.5298 31.11H29.535H29.4893C28.899 31.11 28.3774 30.77 28.1059 30.2943L28.083 30.2714L28.0601 30.2257V30.2029L28.0373 30.1571L28.0144 30.1114V30.0886L27.9915 30.0429L27.9687 30.02V29.9743L27.9458 29.9286V29.9057L27.9229 29.86V29.8143V29.7914V29.7686L27.9001 29.7457V29.7V29.6543V29.6143V29.5914V29.5457V29.5V10.2943C27.9001 9.41 28.6032 8.70714 29.4879 8.70714C30.3725 8.70714 31.0985 9.41 31.0985 10.2943V27.89H44.5298ZM29.4893 3.22C36.748 3.22 43.3264 6.14571 48.0898 10.9071C52.8546 15.6686 55.803 22.2443 55.803 29.5C55.803 36.7571 52.8532 43.3329 48.0898 48.0943C43.3264 52.8557 36.748 55.7814 29.4893 55.7814C22.2306 55.7814 15.6522 52.8557 10.8888 48.0943C6.14682 43.3314 3.19846 36.7557 3.19846 29.5C3.19846 22.2443 6.14824 15.6686 10.8888 10.9071C15.6522 6.14429 22.2306 3.22 29.4893 3.22Z" fill="#4C4C4C"/>
</svg>
