<svg width="50" height="58" viewBox="0 0 50 58" fill="none" xmlns="http://www.w3.org/2000/svg">
<path d="M4.47098 36.3702C4.47098 37.2703 5.26101 38 6.23549 38C7.20997 38 8 37.2703 8 36.3702V23.6298C8 22.9705 7.57017 22.3763 6.91071 22.124C6.25172 21.8719 5.49251 22.0112 4.98786 22.4774L0.516825 26.6072C-0.172275 27.2437 -0.172275 28.2757 0.516825 28.912C1.20593 29.5485 2.32321 29.5485 3.01208 28.912L4.47098 27.5644V36.3702Z" fill="#4C4C4C"/>
<path d="M14.0121 6.91199L15.471 5.56444V14.3702C15.471 15.2703 16.261 16 17.2355 16C18.21 16 19 15.2703 19 14.3702V1.62978C19 0.970451 18.5702 0.376318 17.9107 0.124019C17.2517 -0.128064 16.4925 0.0112334 15.9879 0.477369L11.5168 4.60718C10.8277 5.24368 10.8277 6.2757 11.5168 6.91199C12.2059 7.5485 13.3232 7.5485 14.0121 6.91199Z" fill="#4C4C4C"/>
<path d="M33.9107 22.124C33.2517 21.8719 32.4925 22.0112 31.9879 22.4774L27.5168 26.6072C26.8277 27.2437 26.8277 28.2757 27.5168 28.912C28.2059 29.5485 29.3232 29.5485 30.0121 28.912L31.471 27.5644V36.3702C31.471 37.2703 32.261 38 33.2355 38C34.21 38 35 37.2703 35 36.3702V23.6298C35 22.9707 34.5702 22.3763 33.9107 22.124Z" fill="#4C4C4C"/>
<path d="M25.9107 42.1238C25.2517 41.8721 24.4925 42.0112 23.9879 42.4767L19.5168 46.6003C18.8277 47.2358 18.8277 48.2663 19.5168 48.9017C20.2059 49.5372 21.3232 49.5372 22.0121 48.9017L23.471 47.5561V52.3726C23.471 53.2714 24.261 54 25.2355 54C26.21 54 27 53.2714 27 52.3726V43.6273C27 42.969 26.5702 42.3758 25.9107 42.1238Z" fill="#4C4C4C"/>
<path fill-rule="evenodd" clip-rule="evenodd" d="M23 27.6015V32.3985C23 35.4872 20.5503 38 17.5391 38H17.4609C14.4497 38 12 35.4872 12 32.3985V27.6015C12 24.5128 14.4497 22 17.4609 22H17.5391C20.5503 22 23 24.5128 23 27.6015ZM17.5391 34.7403C18.798 34.7403 19.8221 33.6898 19.8221 32.3985V27.6015C19.8221 26.3102 18.798 25.2597 17.5391 25.2597H17.4609C16.202 25.2597 15.1779 26.3102 15.1779 27.6015V32.3985C15.1779 33.6898 16.202 34.7403 17.4609 34.7403H17.5391Z" fill="#4C4C4C"/>
<path fill-rule="evenodd" clip-rule="evenodd" d="M44.4609 22H44.5391C47.5503 22 50 24.513 50 27.6015V32.3985C50 35.4872 47.5503 38 44.5391 38H44.4609C41.4497 38 39 35.4872 39 32.3985V27.6015C39 24.5128 41.4497 22 44.4609 22ZM44.5391 34.7405C45.798 34.7405 46.8221 33.69 46.8221 32.3987V27.6017C46.8221 26.3104 45.798 25.2599 44.5391 25.2599H44.4609C43.202 25.2599 42.1779 26.3104 42.1779 27.6017V32.3987C42.1779 33.69 43.202 34.7405 44.4609 34.7405H44.5391Z" fill="#4C4C4C"/>
<path d="M28.5391 0H28.4609C25.4497 0 23 2.51281 23 5.6015V10.3985C23 13.4872 25.4497 16 28.4609 16H28.5391C29.4166 16 30.128 15.2703 30.128 14.3701C30.128 13.47 29.4166 12.7403 28.5391 12.7403H28.4609C27.202 12.7403 26.1779 11.6898 26.1779 10.3985V5.6015C26.1779 4.31022 27.202 3.25972 28.4609 3.25972H28.5391C29.798 3.25972 30.8221 4.31022 30.8221 5.6015C30.8221 6.50162 31.5335 7.23136 32.411 7.23136C33.2886 7.23136 34 6.50162 34 5.6015C34.0002 2.51281 31.5505 0 28.5391 0Z" fill="#4C4C4C"/>
<path fill-rule="evenodd" clip-rule="evenodd" d="M44.4609 0H44.5391C47.5503 0 50 2.51281 50 5.6015V10.3985C50 13.4872 47.5503 16 44.5391 16H44.4609C41.4497 16 39 13.4872 39 10.3985V5.6015C39 2.51281 41.4497 0 44.4609 0ZM44.5391 12.7405C45.798 12.7405 46.8221 11.69 46.8221 10.3987V5.6015C46.8221 4.31022 45.798 3.25972 44.5391 3.25972H44.4609C43.202 3.25972 42.1779 4.31022 42.1779 5.6015V10.3987C42.1779 11.69 43.202 12.7405 44.4609 12.7405H44.5391Z" fill="#4C4C4C"/>
<path fill-rule="evenodd" clip-rule="evenodd" d="M9.46091 42H9.53909C12.5505 42 15.0002 44.513 15 47.6015V52.3985C15 55.4872 12.5503 58 9.53909 58H9.46091C6.44974 58 4 55.4872 4 52.3985V47.6015C4 44.5128 6.44974 42 9.46091 42ZM9.5393 54.7405C10.7982 54.7405 11.8223 53.69 11.8223 52.3987V47.6015C11.8223 46.3102 10.7982 45.2597 9.5393 45.2597H9.46112C8.20225 45.2597 7.17812 46.3102 7.17812 47.6015V52.3987C7.17812 53.69 8.20225 54.7405 9.46112 54.7405H9.5393Z" fill="#4C4C4C"/>
</svg>
