<svg width="11" height="20" viewBox="0 0 11 20" fill="none" xmlns="http://www.w3.org/2000/svg">
<g opacity="0.5">
<path d="M10.018 0.004L7.52502 0C4.72423 0 2.91423 1.857 2.91423 4.7312V6.9126H0.407625C0.191025 6.9126 0.015625 7.0882 0.015625 7.3048V10.4654C0.015625 10.682 0.191225 10.8574 0.407625 10.8574H2.91423V18.8326C2.91423 19.0492 3.08963 19.2246 3.30623 19.2246H6.57662C6.79322 19.2246 6.96863 19.049 6.96863 18.8326V10.8574H9.89942C10.116 10.8574 10.2914 10.682 10.2914 10.4654L10.2926 7.3048C10.2926 7.2008 10.2512 7.1012 10.1778 7.0276C10.1044 6.954 10.0044 6.9126 9.90042 6.9126H6.96863V5.0634C6.96863 4.1746 7.18043 3.7234 8.33823 3.7234L10.0176 3.7228C10.234 3.7228 10.4094 3.5472 10.4094 3.3308V0.396C10.4094 0.1798 10.2342 0.0044 10.018 0.004Z" fill="#3A4357"/>
</g>
</svg>
