<svg width="58" height="58" viewBox="0 0 58 58" fill="none" xmlns="http://www.w3.org/2000/svg">
<path fill-rule="evenodd" clip-rule="evenodd" d="M49.5012 8.49878C44.0327 3.01837 36.7412 0 29 0C21.2588 0 13.9673 3.01837 8.49878 8.49878C3.0302 13.9792 0 21.2588 0 29C0 36.7412 3.01837 44.0327 8.49878 49.5012C13.9792 54.9698 21.2588 58 29 58C36.7412 58 44.0327 54.9816 49.5012 49.5012C54.9698 44.0208 58 36.7412 58 29C58 21.2588 54.9816 13.9673 49.5012 8.49878ZM55.3722 27.698H44.1273C44.0208 23.2237 43.3935 18.9151 42.2927 15.0918C44.4351 13.991 46.4355 12.6061 48.2702 10.9727C52.4131 15.3996 55.0527 21.2469 55.3722 27.698ZM41.5351 30.302H30.302V39.8069C33.6282 39.9608 36.8596 40.671 39.8898 41.8902C40.8722 38.3629 41.4404 34.4212 41.5351 30.302ZM46.4 9.16163C44.8849 10.4992 43.2278 11.6355 41.4759 12.5824C41.0261 11.3278 40.5171 10.1441 39.949 9.03143C38.8245 6.80612 37.5461 4.98327 36.1376 3.58653C39.9845 4.66367 43.4763 6.59306 46.4 9.16163ZM37.629 10.1796C35.5694 6.10775 33.0127 3.6102 30.302 3.00653V15.6718C33.3678 15.518 36.3388 14.8433 39.1204 13.6951C38.6824 12.4522 38.1853 11.2804 37.629 10.1796ZM39.9016 16.1927C40.8722 19.6963 41.4286 23.6143 41.5233 27.7098H30.302V18.2878C33.64 18.1339 36.8714 17.4118 39.9016 16.1927ZM16.4649 27.698H27.6861V18.2641C24.36 18.122 21.1167 17.4118 18.0865 16.1808C17.1159 19.6845 16.5596 23.6024 16.4649 27.698ZM27.7098 3.00653V15.6718C24.6441 15.518 21.6612 14.8433 18.8914 13.6951C19.3294 12.4522 19.8265 11.2804 20.3829 10.1796C22.4424 6.10775 24.9992 3.6102 27.7098 3.00653ZM18.0629 9.03143C19.1873 6.81796 20.4657 4.98327 21.8743 3.58653C18.0273 4.66367 14.5355 6.59306 11.6118 9.16163C13.1388 10.4992 14.7841 11.6355 16.5359 12.5824C16.9976 11.3278 17.5065 10.1441 18.0629 9.03143ZM9.74163 10.9727C11.5763 12.6061 13.5767 13.9792 15.7192 15.0918C14.6184 18.9269 13.9792 23.2237 13.8845 27.698H2.63959C2.95918 21.2469 5.59878 15.3996 9.74163 10.9727ZM13.8845 30.302H2.63959C2.95918 36.7767 5.61061 42.6359 9.78898 47.0747C11.6118 45.4412 13.6122 44.08 15.7429 42.9792C14.6302 39.1322 13.991 34.8118 13.8845 30.302ZM11.6592 48.8857C13.1743 47.56 14.8196 46.4237 16.5596 45.4886C17.0094 46.7078 17.5065 47.8796 18.0629 48.9686C19.1873 51.1939 20.4657 53.0167 21.8743 54.4253C18.051 53.3482 14.571 51.4306 11.6592 48.8857ZM20.3829 47.8204C22.4424 51.8922 24.9992 54.3898 27.7098 54.9935V42.411C24.6559 42.5531 21.6849 43.2278 18.9151 44.3759C19.3531 45.5951 19.8384 46.7433 20.3829 47.8204ZM18.122 41.8902C17.1396 38.3629 16.5714 34.4212 16.4767 30.302H27.7098V39.8069C24.3837 39.949 21.1522 40.6592 18.122 41.8902ZM30.3139 42.411V54.9935C33.0245 54.3898 35.5812 51.8922 37.6408 47.8204C38.1853 46.7433 38.6706 45.5951 39.1086 44.3759C36.3388 43.2278 33.3678 42.5649 30.3139 42.411ZM36.1494 54.4135C37.558 53.0167 38.8363 51.182 39.9608 48.9567C40.5171 47.8678 41.0143 46.6959 41.4641 45.4767C43.2041 46.4118 44.8494 47.5482 46.3645 48.8739C43.4527 51.4306 39.9727 53.3482 36.1494 54.4135ZM42.2927 42.9792C44.4233 44.08 46.4237 45.4531 48.2465 47.0747C52.4131 42.6359 55.0645 36.7767 55.3959 30.302H44.151C44.0445 34.8 43.4053 39.1322 42.2927 42.9792Z" fill="#4C4C4C"/>
</svg>
