<svg width="157" height="34" viewBox="0 0 157 34" fill="none" xmlns="http://www.w3.org/2000/svg">
<path d="M33.5216 17.0043C31.5837 15.0871 28.4439 15.084 26.5023 16.9975L26.494 17.0043C26.3332 17.1647 26.1835 17.3356 26.0457 17.5159C26.0425 17.5212 26.0389 17.5262 26.0348 17.5308L26.0444 17.5186C25.9873 17.5639 25.9278 17.606 25.8662 17.6448L25.8264 17.6693L25.7688 17.7018L25.6989 17.7398L25.6235 17.7765L25.57 17.7995L25.5453 17.8104L25.4837 17.8335L25.4288 17.8525L25.3685 17.8715L25.3109 17.8878C25.2939 17.8931 25.2765 17.8972 25.2588 17.9H25.2465H25.2149H25.2081H25.1848L25.1491 17.9068H25.1272L25.0861 17.9135H25.0779H25.0504H25.0354H24.975H24.949H24.8859H24.6734H24.6405L24.5377 17.9027H24.4993L24.4404 17.8932L24.3759 17.881C24.317 17.8688 24.258 17.8525 24.2004 17.8348L24.1525 17.8199L24.0894 17.7982L24.0496 17.7819L23.9948 17.7588L23.9496 17.7385C23.9153 17.7235 23.8838 17.7073 23.8508 17.6896L23.8179 17.672L23.7563 17.6367C23.7425 17.6289 23.7292 17.6203 23.7165 17.6109C23.6965 17.6 23.6773 17.5877 23.6589 17.5743C23.6388 17.5607 23.6182 17.5458 23.5972 17.5295C23.5839 17.5207 23.571 17.5112 23.5588 17.501L23.4889 17.444L23.4793 17.4358L23.4492 17.4087C23.4245 17.3883 23.4025 17.3653 23.3792 17.3422L23.345 17.3083L23.3134 17.2743C23.2792 17.2377 23.2476 17.2011 23.2175 17.1631L23.1901 17.1264L23.1613 17.0884C23.1617 17.0857 23.1617 17.083 23.1613 17.0803L23.1311 17.0368V17.0301C23.1037 16.9893 23.0776 16.9486 23.0543 16.9066L23.0296 16.8604V16.8523C23.0022 16.798 22.9762 16.7437 22.9529 16.6867C22.946 16.6718 22.9405 16.6568 22.9351 16.6419C22.9213 16.6053 22.9076 16.5686 22.8967 16.532L22.8802 16.475C22.8665 16.4275 22.8555 16.38 22.8446 16.3298C22.8446 16.3013 22.8336 16.2728 22.8295 16.2443L22.8172 16.1547C22.8172 16.1235 22.8172 16.0909 22.8103 16.0583C22.8034 16.0258 22.8103 16.0217 22.8103 16.0041C22.8103 15.9864 22.8103 15.9634 22.8103 15.943C22.8103 15.9226 22.8103 15.8955 22.8103 15.8711C22.8103 15.8453 22.8103 15.8181 22.8103 15.7924C22.8089 15.7756 22.8089 15.7588 22.8103 15.7421C22.8103 15.7096 22.8103 15.6756 22.8226 15.6431C22.835 15.6105 22.8226 15.6105 22.8309 15.5942C22.8391 15.5779 22.8309 15.5684 22.8309 15.5549C22.8315 15.5472 22.8315 15.5395 22.8309 15.5318C22.8309 15.5046 22.8432 15.4789 22.8501 15.4517L22.8665 15.392C22.8665 15.3649 22.883 15.3377 22.8926 15.3106C22.9021 15.2834 22.9131 15.2509 22.9255 15.221C22.9378 15.1911 22.9501 15.1599 22.9638 15.1301L22.9844 15.0866C22.9981 15.0581 23.0132 15.0296 23.0283 15.0025L23.0763 14.9197C23.09 14.8966 23.1051 14.8722 23.1215 14.8491L23.1558 14.8003C23.183 14.7608 23.2123 14.7228 23.2435 14.6863C23.3218 14.5927 23.4085 14.5064 23.5026 14.4284L23.5534 14.3877L23.5917 14.3592L23.6767 14.2995L23.711 14.2778C23.7237 14.2684 23.737 14.2598 23.7508 14.252L23.7933 14.2276L23.8317 14.2059L23.8783 14.1814L23.9221 14.1597L23.966 14.1394L24.0099 14.1204C24.0551 14.1014 24.1004 14.0837 24.147 14.0688L24.195 14.0539L24.2306 14.043L24.2539 14.0362L24.3005 14.024L24.3375 14.0159L24.3855 14.005H24.3951L24.4842 13.9901H24.4911L24.5843 13.9792H24.635H24.6721C24.7104 13.9792 24.7502 13.9792 24.79 13.9792H24.8859H24.9709H24.9846L25.0751 13.9901C25.1066 13.9901 25.1683 14.0064 25.1683 14.0064C25.3054 14.0607 26.6764 14.6116 27.562 14.6116C29.5725 14.6127 31.3855 13.4147 32.1555 11.5763C32.9255 9.73787 32.5008 7.62131 31.0794 6.21386C29.658 4.80641 27.52 4.38535 25.6626 5.14708C23.8053 5.9088 22.5945 7.70325 22.5951 9.69341C22.5934 10.0883 22.6394 10.4819 22.7322 10.866C22.7322 10.8402 22.7184 10.8144 22.713 10.7886V10.8117C22.7143 10.832 22.7143 10.8524 22.713 10.8728V10.8836C22.713 10.9108 22.713 10.9379 22.713 10.965C22.7114 12.06 21.8147 12.9471 20.7086 12.9478H20.5894H20.5249H20.481H20.4728H20.4536L20.3947 12.9397L20.3549 12.9329L20.2576 12.9139L20.2082 12.9017L20.1424 12.8827L20.067 12.8596C20.0136 12.842 19.9628 12.8216 19.9121 12.7999L19.8449 12.77H19.8367C19.812 12.7578 19.7873 12.7456 19.764 12.732C19.7407 12.7185 19.7161 12.7062 19.6927 12.6927L19.6338 12.656L19.6201 12.6479C19.5982 12.633 19.5762 12.6194 19.5557 12.6031L19.4912 12.5556C19.4265 12.5063 19.3651 12.4528 19.3075 12.3955C19.2911 12.3792 19.2746 12.3629 19.2595 12.3452C19.2444 12.3276 19.2417 12.3276 19.2335 12.3195L19.2253 12.3086C19.2088 12.2923 19.1951 12.276 19.1814 12.2597C19.1633 12.2399 19.1464 12.219 19.1307 12.1973C19.1235 12.1893 19.1171 12.1807 19.1115 12.1715C19.0936 12.1498 19.0758 12.1254 19.0594 12.101L19.0278 12.0548C19.0281 12.0517 19.0281 12.0485 19.0278 12.0453C19.021 12.0345 19.0141 12.025 19.0086 12.0141C18.9826 11.972 18.9579 11.93 18.936 11.8852L18.9154 11.8458L18.888 11.7861C18.877 11.763 18.8688 11.74 18.8578 11.7183C18.8469 11.6965 18.8455 11.6843 18.84 11.668C18.8333 11.6531 18.8278 11.6377 18.8236 11.6219C18.796 11.5444 18.774 11.465 18.7578 11.3844C18.7578 11.36 18.7482 11.3355 18.744 11.3098C18.7264 11.203 18.7176 11.095 18.718 10.9868C18.718 10.9664 18.718 10.946 18.718 10.9243C18.718 10.9026 18.718 10.889 18.718 10.8714C18.718 10.8538 18.718 10.8049 18.7262 10.7723C18.7255 10.7597 18.7255 10.747 18.7262 10.7343C18.7262 10.714 18.7262 10.6936 18.7345 10.6746C18.7427 10.6556 18.7427 10.6244 18.7482 10.6013C18.7536 10.5783 18.7605 10.5389 18.7687 10.5077C18.777 10.4765 18.7783 10.4724 18.7824 10.4534C18.7864 10.4433 18.7897 10.4328 18.792 10.4222C18.7942 10.4139 18.7969 10.4057 18.8003 10.3978C18.8126 10.357 18.8263 10.3163 18.8414 10.277L18.8592 10.2349C18.8661 10.2159 18.8743 10.1983 18.8825 10.1806C18.8907 10.163 18.8976 10.1467 18.9058 10.1304C18.9416 10.0552 18.9828 9.98258 19.0292 9.91327C19.0415 9.89291 19.0566 9.87256 19.0703 9.85084L19.0799 9.83863L19.1087 9.80063C19.1174 9.78732 19.127 9.77463 19.1375 9.76263L19.1677 9.72463L19.1992 9.69206C19.2198 9.66763 19.2417 9.64456 19.2636 9.62149C19.2856 9.59842 19.3075 9.57534 19.3322 9.55363L19.3665 9.52242C19.4186 9.47492 19.5282 9.3867 19.5282 9.3867C19.7106 9.27135 20.5235 8.84385 20.9883 8.38243C22.4789 6.90311 22.8612 4.65232 21.9413 2.77178C21.0213 0.891247 19.0005 -0.207551 16.9038 0.0327576C14.8071 0.273066 13.0933 1.7999 12.6318 3.83876C12.1703 5.87763 13.062 7.9824 14.8547 9.08542L14.8917 9.10849C15.1069 9.2442 15.5346 9.43692 15.5209 9.43013L15.5621 9.46406L15.6251 9.51834L15.6594 9.54956C15.6676 9.5577 15.6772 9.56584 15.6855 9.57534L15.695 9.58349C15.7044 9.59233 15.7131 9.60186 15.7211 9.61199L15.7321 9.62284L15.7814 9.67713L15.8376 9.74363C15.8527 9.76127 15.8664 9.77891 15.8801 9.79791L15.8925 9.8142C15.9103 9.83727 15.9254 9.85898 15.9418 9.88341C15.9583 9.90784 15.9734 9.93091 15.9884 9.95534L16.0063 9.98655C16.0182 10.005 16.0292 10.024 16.0392 10.0436C16.0474 10.0558 16.0529 10.0693 16.0597 10.0816C16.0666 10.0938 16.0748 10.1101 16.0817 10.125L16.1022 10.1684L16.1228 10.2159C16.1351 10.2444 16.1475 10.2729 16.1571 10.3014C16.164 10.3167 16.1695 10.3326 16.1735 10.3489C16.1794 10.364 16.1844 10.3794 16.1886 10.3951C16.1968 10.4195 16.205 10.4453 16.2119 10.471C16.2188 10.4968 16.2119 10.5009 16.2229 10.5145V10.5362C16.2229 10.5525 16.2229 10.5688 16.2325 10.585C16.2325 10.6135 16.2434 10.642 16.2475 10.6719C16.2482 10.6746 16.2482 10.6774 16.2475 10.68C16.2475 10.6963 16.2475 10.7126 16.2475 10.7303C16.2482 10.737 16.2482 10.7438 16.2475 10.7506C16.2475 10.7669 16.2475 10.7832 16.2475 10.7995C16.2475 10.809 16.2475 10.8185 16.2475 10.828C16.2475 10.8375 16.2475 10.847 16.2475 10.8565V10.8633C16.2475 10.8768 16.2475 10.8918 16.2475 10.9053C16.2475 10.9189 16.2475 10.9555 16.2475 10.9813C16.2475 11.0315 16.2475 11.0818 16.2475 11.1306C16.2475 11.1401 16.2475 11.151 16.2475 11.1605C16.2462 11.1846 16.2435 11.2086 16.2393 11.2324C16.2393 11.2568 16.2393 11.2813 16.2297 11.3043C16.2201 11.3274 16.2201 11.3545 16.2146 11.379C16.2092 11.4034 16.205 11.4305 16.1982 11.4563C16.1845 11.5106 16.168 11.5635 16.1502 11.6165C16.1459 11.6322 16.1404 11.6477 16.1338 11.6626C16.1338 11.6789 16.1214 11.6952 16.1146 11.7128C16.1077 11.7305 16.0967 11.7576 16.0858 11.7807L16.0583 11.8404C16.0583 11.8512 16.0474 11.8621 16.0405 11.873V11.8797C16.0186 11.9245 15.9939 11.9666 15.9679 12.0087C15.9679 12.0195 15.9555 12.029 15.9487 12.0399V12.0494C15.9391 12.0643 15.9295 12.0806 15.9185 12.0955C15.9075 12.1105 15.8842 12.1444 15.8664 12.1661C15.8608 12.1752 15.8544 12.1839 15.8472 12.1919C15.8308 12.2136 15.8143 12.234 15.7965 12.2543L15.7526 12.3032L15.7444 12.314C15.7362 12.3222 15.728 12.3317 15.7184 12.3398C15.7088 12.348 15.6868 12.3737 15.6704 12.39C15.6127 12.4473 15.5514 12.5008 15.4867 12.5502L15.4222 12.5977C15.4017 12.614 15.3797 12.6275 15.3578 12.6425L15.3441 12.6506L15.2851 12.6872C15.2618 12.7008 15.2385 12.7144 15.2138 12.7266C15.1892 12.7388 15.1659 12.7524 15.1412 12.7646H15.133L15.0658 12.7945C15.0151 12.8162 14.963 12.8365 14.9109 12.8542L14.8355 12.8772L14.7697 12.8962L14.7203 12.9085L14.623 12.9275L14.5832 12.9342L14.538 12.9492H14.5174C14.4623 12.956 14.407 12.9601 14.3515 12.9614H14.283C13.1768 12.9606 12.2801 12.0736 12.2786 10.9786C12.2786 10.9569 12.2786 10.9162 12.2786 10.9162C12.3788 10.5208 12.4294 10.1146 12.4294 9.70699C12.43 7.71707 11.2195 5.92279 9.3625 5.16091C7.5055 4.39902 5.36771 4.81958 3.9461 6.22647C2.52449 7.63336 2.09905 9.74947 2.86819 11.588C3.63732 13.4265 5.44954 14.6252 7.45973 14.6252C8.35496 14.6252 9.60527 14.1353 9.86438 14.0145L9.90551 14.0064H9.94801H9.95761L10.0316 13.9982H10.0591H10.1207H10.2126C10.2524 13.9982 10.2907 13.9982 10.3305 13.9982H10.3675H10.4182L10.5115 14.0091H10.5183L10.6074 14.024H10.617L10.665 14.0349L10.702 14.043L10.7486 14.0552L10.7733 14.062L10.8076 14.0729L10.8542 14.0878C10.9008 14.1025 10.9466 14.1197 10.9913 14.1394L11.0365 14.1584L11.0804 14.1787L11.1243 14.2004L11.1709 14.2249L11.2093 14.2466L11.2518 14.271C11.2655 14.2788 11.2788 14.2874 11.2915 14.2968L11.3258 14.3185L11.4108 14.3782L11.4492 14.4067L11.4999 14.4474L11.5616 14.5017L11.5945 14.5316C11.6055 14.5424 11.6178 14.5533 11.6288 14.5655C11.6405 14.5761 11.6514 14.5875 11.6617 14.5994C11.6836 14.6212 11.7042 14.6442 11.7248 14.6673L11.7577 14.7053L11.7892 14.7433L11.818 14.7813L11.8468 14.8193L11.8797 14.8681C11.8948 14.8899 11.9085 14.9116 11.9222 14.9333L11.9702 15.0161C11.9852 15.0432 12.0003 15.0717 12.014 15.1002C12.0223 15.114 12.0291 15.1286 12.0346 15.1436C12.0497 15.1735 12.062 15.2034 12.0744 15.2346C12.0867 15.2658 12.0977 15.2929 12.1073 15.3241C12.1169 15.3554 12.1251 15.3784 12.1333 15.4056L12.1498 15.4653C12.1498 15.4924 12.1635 15.5182 12.169 15.5454V15.5684C12.169 15.582 12.169 15.5956 12.1772 15.6078L12.1854 15.6566C12.1854 15.6892 12.195 15.7231 12.1977 15.7557C12.1991 15.7724 12.1991 15.7892 12.1977 15.8059C12.1977 15.8317 12.1977 15.8589 12.1977 15.8846C12.1977 15.9091 12.1977 15.9321 12.1977 15.9566C12.1977 15.981 12.1977 15.9973 12.1977 16.0176C12.1977 16.038 12.1977 16.0475 12.1977 16.0624C12.1983 16.0656 12.1983 16.0688 12.1977 16.0719V16.1018C12.1971 16.1135 12.1971 16.1253 12.1977 16.1371V16.1696V16.2131C12.1748 16.384 12.1287 16.5511 12.0606 16.7098L12.0319 16.7763C12.0182 16.8061 12.0017 16.836 11.9866 16.8658V16.874L11.9619 16.9201C11.9373 16.9622 11.9126 17.0029 11.8852 17.0436C11.8742 17.0613 11.8619 17.0776 11.8509 17.0938C11.8505 17.0965 11.8505 17.0993 11.8509 17.102L11.8221 17.14L11.7947 17.1766C11.7645 17.2146 11.733 17.2513 11.6987 17.2879C11.6885 17.2999 11.6775 17.3112 11.6658 17.3218L11.6329 17.3558C11.6096 17.3788 11.5863 17.4019 11.563 17.4223L11.5273 17.4535L11.4574 17.5105C11.4452 17.5207 11.4324 17.5302 11.419 17.539C11.3807 17.5681 11.3409 17.5953 11.2998 17.6204C11.287 17.6298 11.2738 17.6384 11.26 17.6462L11.2271 17.6652L11.1983 17.6815C11.0915 17.7414 10.979 17.791 10.8624 17.8294L10.8158 17.8443C10.7582 17.862 10.6993 17.8783 10.639 17.8905L10.5745 17.9027L10.517 17.9122H10.4786L10.3757 17.923H10.3415H10.1386H10.0673H10.044H9.97954H9.96583L9.89591 17.9135L9.8164 17.8986L9.73962 17.881L9.66148 17.8606L9.57922 17.8348C9.55729 17.8267 9.53398 17.8199 9.51205 17.8104L9.44213 17.7833L9.37632 17.7534L9.35576 17.7453L9.30229 17.7168C9.27873 17.7059 9.25584 17.6937 9.23374 17.6801L9.18576 17.653L9.14463 17.6272L9.03907 17.5553C9.05415 17.5756 9.06786 17.5973 9.08157 17.6177C8.90858 17.3666 8.71213 17.1321 8.4948 16.9174C8.47972 16.9011 8.46327 16.8876 8.44682 16.8713C6.80872 15.29 4.29217 15.0189 2.34887 16.2145C0.405569 17.41 -0.463115 19.7638 0.243927 21.9178C0.95097 24.0719 3.05132 25.4707 5.33337 25.3072C7.61543 25.1436 9.49041 23.4601 9.87672 21.2277V21.2548C9.91795 21.1815 9.96374 21.1108 10.0138 21.0431L10.0344 21.0173C10.0663 20.9752 10.1007 20.9348 10.1372 20.8965C10.1474 20.8841 10.1584 20.8723 10.1701 20.8612C10.1822 20.8475 10.195 20.8343 10.2085 20.8219C10.2304 20.8002 10.251 20.7812 10.2729 20.7622L10.2894 20.7472L10.347 20.6984L10.3675 20.6821C10.3881 20.6644 10.41 20.6482 10.4333 20.6319C10.4456 20.6221 10.4584 20.613 10.4717 20.6047C10.4936 20.5884 10.517 20.5735 10.5403 20.5586L10.6074 20.5179L10.6266 20.507C10.6406 20.4982 10.6553 20.4905 10.6705 20.4839C10.7144 20.4595 10.761 20.4378 10.8076 20.4161L10.8405 20.4025C10.9026 20.3763 10.9663 20.3536 11.0311 20.3347L11.0928 20.317C11.1134 20.3102 11.1344 20.3047 11.1558 20.3007C11.1915 20.2912 11.2285 20.2845 11.2655 20.2777H11.2998C11.3601 20.2686 11.4204 20.2618 11.4807 20.2573C11.5036 20.2559 11.5265 20.2559 11.5493 20.2573H11.6192H11.7138L11.8098 20.2641L11.8893 20.2722H11.9085C11.9713 20.2805 12.0335 20.2922 12.0949 20.3075L12.1744 20.3279L12.2608 20.355C12.2951 20.3672 12.328 20.3781 12.3609 20.3917C12.3833 20.4 12.4053 20.4095 12.4267 20.4202L12.4939 20.45L12.5295 20.4677C12.5706 20.4894 12.6118 20.5111 12.6515 20.5355L12.6858 20.5572C12.7064 20.5681 12.7256 20.5817 12.7448 20.5939L12.8174 20.6468C12.8652 20.6812 12.911 20.7184 12.9545 20.7581C12.9929 20.7934 13.0313 20.8287 13.0669 20.8667L13.0998 20.9019C13.1092 20.9113 13.1179 20.9212 13.1259 20.9318L13.1519 20.9603C13.1821 20.9956 13.2109 21.0322 13.2383 21.0689L13.2863 21.1367C13.3178 21.1842 13.3466 21.2317 13.374 21.2806C13.4001 21.3281 13.4247 21.3769 13.4481 21.4285C13.4532 21.4391 13.4578 21.45 13.4618 21.4611C13.4755 21.4909 13.4864 21.5208 13.4974 21.5506C13.5041 21.566 13.5096 21.5819 13.5139 21.5982C13.5221 21.6171 13.5276 21.6375 13.5344 21.6579L13.5509 21.7149L13.5591 21.7488C13.5673 21.7786 13.5742 21.8099 13.581 21.8411C13.5879 21.8723 13.581 21.8682 13.581 21.8818C13.581 21.8954 13.5879 21.9198 13.5906 21.9388L13.5989 21.9944C13.5989 22.0134 13.5989 22.0311 13.5989 22.0501C13.5989 22.0691 13.5989 22.1084 13.5989 22.1383C13.5989 22.1668 13.5989 22.1966 13.5989 22.2265C13.5989 22.2564 13.5989 22.2835 13.5989 22.312V22.3785C13.5995 22.3903 13.5995 22.402 13.5989 22.4138C13.5989 22.4138 13.5989 22.4206 13.5989 22.4246C13.5989 22.4287 13.5989 22.464 13.592 22.483L13.5797 22.5671C13.5797 22.5943 13.5687 22.6228 13.5632 22.6486C13.5577 22.6744 13.5509 22.7015 13.544 22.7273C13.544 22.7504 13.5317 22.7721 13.5248 22.7951C13.5192 22.8159 13.5123 22.8363 13.5043 22.8562C13.5 22.872 13.4945 22.8874 13.4878 22.9024C13.4799 22.9259 13.4707 22.949 13.4604 22.9716C13.4522 22.9906 13.4439 23.0109 13.4343 23.0299L13.4056 23.091C13.4018 23.1 13.3972 23.1086 13.3918 23.1168C13.348 23.2023 13.2976 23.2845 13.241 23.3624C13.2324 23.3762 13.2227 23.3893 13.2122 23.4018C13.1743 23.4528 13.1336 23.5017 13.0902 23.5483C13.08 23.5603 13.069 23.5717 13.0573 23.5823C13.0471 23.5947 13.0361 23.6065 13.0244 23.6176L12.9888 23.6501C12.9668 23.6732 12.9422 23.6936 12.9189 23.7139L12.8448 23.775L12.8064 23.8035C12.7845 23.8211 12.7626 23.8361 12.7406 23.851L12.716 23.8673L12.6817 23.889C12.6703 23.897 12.6584 23.9043 12.646 23.9107L12.6049 23.9351L12.5624 23.9596L12.5199 23.9813L12.498 23.9921L12.476 24.003L12.4308 24.0233L12.3869 24.0423L12.3444 24.0776L12.3102 24.0912C12.2704 24.1061 12.2306 24.1183 12.1895 24.1306L12.1566 24.1414L12.0922 24.1577H12.1511H11.9537C9.60833 24.1584 7.5827 25.7822 7.09438 28.053C6.60607 30.3239 7.78801 32.6236 9.92978 33.5698C12.0715 34.516 14.59 33.8511 15.9714 31.9749C17.3528 30.0986 17.221 27.5216 15.6553 25.793L15.6759 25.8147C15.6621 25.7849 15.6498 25.7564 15.6375 25.7252C15.6265 25.698 15.6169 25.6682 15.6059 25.6397C15.595 25.6112 15.5963 25.6098 15.5909 25.5935C15.5854 25.5773 15.5717 25.5284 15.5634 25.4958C15.559 25.4811 15.5553 25.4662 15.5525 25.451C15.5525 25.432 15.5429 25.4117 15.5388 25.3913C15.5394 25.3791 15.5394 25.3669 15.5388 25.3547C15.5388 25.3357 15.5319 25.3153 15.5292 25.295C15.5264 25.2746 15.5292 25.2651 15.5292 25.2502C15.5292 25.2353 15.5292 25.2217 15.5292 25.2068C15.5292 25.1918 15.5292 25.1443 15.5223 25.1131C15.5155 25.0819 15.5223 25.0846 15.5223 25.0697C15.5223 25.0548 15.5223 25.0263 15.5223 25.0045C15.5223 24.9828 15.5223 24.9475 15.5223 24.9204V24.8525C15.5216 24.8431 15.5216 24.8335 15.5223 24.824C15.5223 24.8037 15.5223 24.7833 15.5223 24.763V24.7372C15.5223 24.7209 15.5223 24.706 15.5223 24.691C15.5223 24.6761 15.5223 24.668 15.5223 24.6558V24.6395C15.5223 24.6218 15.5223 24.6055 15.5319 24.5879L15.5484 24.5187C15.5484 24.4956 15.5607 24.4725 15.5675 24.4495C15.5714 24.4388 15.5746 24.4279 15.5771 24.4169C15.6028 24.3375 15.633 24.2595 15.6676 24.1835C15.68 24.1563 15.6937 24.1292 15.7074 24.1034C15.7211 24.0776 15.7238 24.0722 15.7321 24.0559L15.7732 23.9867L15.8157 23.9188C15.8294 23.8985 15.8431 23.8781 15.8582 23.8591C15.8665 23.8455 15.8757 23.8323 15.8856 23.8198L15.9158 23.7818C15.9245 23.7694 15.9341 23.7576 15.9446 23.7465C15.9651 23.7221 15.9857 23.6976 16.009 23.6732C16.0192 23.6608 16.0302 23.649 16.0419 23.6379L16.0748 23.604L16.1091 23.5714C16.1203 23.5598 16.1322 23.549 16.1447 23.5388L16.1804 23.5063L16.205 23.4859L16.2544 23.4466C16.2741 23.4301 16.2947 23.4147 16.3161 23.4004L16.3805 23.3556C16.4079 23.338 16.4354 23.3203 16.4628 23.3054L16.5286 23.2674L16.5793 23.2403C16.593 23.2321 16.6067 23.2267 16.6204 23.2199C16.6616 23.1996 16.7027 23.1819 16.7452 23.1643L16.8028 23.1426L16.9056 23.1086L16.9687 23.091L17.0317 23.0761L17.1112 23.0584L17.1825 23.0462C17.2209 23.0462 17.2593 23.0353 17.2977 23.0326H17.3429C17.3895 23.0326 17.4375 23.0326 17.48 23.0326C17.5225 23.0326 17.5746 23.0326 17.6171 23.0326H17.6624C17.7008 23.0326 17.7391 23.0408 17.7762 23.0462L17.8488 23.0584L17.9283 23.0761L17.99 23.091L18.086 23.1181L18.1326 23.1331C18.1833 23.1507 18.2341 23.1711 18.2834 23.1928L18.3451 23.2213L18.3862 23.2416L18.437 23.2688L18.474 23.2891C18.5348 23.323 18.5934 23.3606 18.6495 23.4018L18.7111 23.4479C18.7493 23.4768 18.7859 23.5076 18.8208 23.5402C18.8334 23.5503 18.8453 23.5612 18.8565 23.5728L18.8907 23.6053L18.9236 23.6393C18.9353 23.6503 18.9463 23.6621 18.9565 23.6746C18.9746 23.693 18.9915 23.7125 19.0073 23.7329C19.0237 23.7506 19.0402 23.7709 19.0553 23.7899C19.0703 23.8089 19.084 23.8279 19.0991 23.8469C19.1168 23.8705 19.1333 23.895 19.1485 23.9202C19.1786 23.965 19.2074 24.0098 19.2335 24.0559C19.2431 24.0749 19.254 24.0939 19.2623 24.1129C19.2704 24.127 19.2777 24.1415 19.2842 24.1563L19.3007 24.1889L19.3198 24.2337C19.3457 24.2935 19.3681 24.3546 19.387 24.4169C19.387 24.4278 19.3939 24.4386 19.398 24.4495C19.4021 24.4603 19.4103 24.4956 19.4172 24.5187C19.4282 24.5635 19.4391 24.6096 19.446 24.6544C19.4466 24.6662 19.4466 24.6779 19.446 24.6897C19.446 24.7046 19.446 24.7195 19.4528 24.7358C19.4535 24.7444 19.4535 24.753 19.4528 24.7616C19.4528 24.7806 19.4528 24.801 19.4528 24.82C19.4528 24.8797 19.4611 24.9408 19.4611 25.0018V25.0697C19.4611 25.0982 19.4611 25.1267 19.4611 25.1538C19.4625 25.1678 19.4625 25.1819 19.4611 25.1959C19.4611 25.2258 19.4611 25.257 19.4501 25.2868C19.4391 25.3167 19.4391 25.3601 19.4309 25.3968V25.4239V25.4551C19.4309 25.4687 19.424 25.4836 19.4199 25.4972C19.4176 25.5106 19.4139 25.5238 19.409 25.5365C19.4048 25.555 19.3993 25.5731 19.3925 25.5908C19.3883 25.6065 19.3833 25.6219 19.3774 25.637C19.3734 25.6528 19.3679 25.6682 19.361 25.6831C19.361 25.7008 19.3486 25.717 19.3418 25.7347C19.3235 25.7781 19.3043 25.8233 19.2842 25.8704L19.3253 25.8242C17.7738 27.5598 17.6572 30.1323 19.0456 31.9984C20.4339 33.8646 22.9502 34.5176 25.0848 33.5658C27.2195 32.614 28.3929 30.3158 27.9011 28.0499C27.4094 25.784 25.3859 24.1657 23.0447 24.1658C22.968 24.1658 22.8912 24.1658 22.8158 24.1658H22.8363C22.7815 24.1523 22.728 24.1373 22.6759 24.1197L22.6362 24.1061L22.5964 24.0926L22.558 24.0763L22.5197 24.0613L22.447 24.0288C22.4237 24.0166 22.399 24.0057 22.3757 23.9921L22.3181 23.9609C22.2852 23.9433 22.2551 23.9243 22.2235 23.9039L22.1673 23.8659L22.1193 23.8306C22.1059 23.822 22.0931 23.8125 22.0809 23.8021L22.0028 23.7383C21.9795 23.718 21.9576 23.699 21.9356 23.6773L21.9014 23.6447C21.8785 23.6212 21.8566 23.5981 21.8355 23.5755C21.8122 23.5511 21.7917 23.528 21.7725 23.5036C21.7612 23.4915 21.7507 23.4788 21.741 23.4656L21.7122 23.4289L21.6834 23.3896L21.6491 23.3407L21.6299 23.3108C21.6121 23.2837 21.5956 23.2566 21.5792 23.2281C21.5627 23.1996 21.5476 23.1724 21.5326 23.1439C21.5175 23.1154 21.5189 23.1181 21.5134 23.1059C21.4928 23.0652 21.475 23.0231 21.4572 22.9811C21.4489 22.9621 21.4421 22.9431 21.4352 22.9241C21.4284 22.9051 21.4133 22.863 21.4037 22.8318C21.4031 22.8236 21.4031 22.8155 21.4037 22.8074C21.4037 22.7897 21.3927 22.7707 21.3872 22.7531C21.3818 22.7354 21.3763 22.711 21.3722 22.6893C21.3681 22.6676 21.3722 22.6649 21.3639 22.654C21.3634 22.645 21.3634 22.6359 21.3639 22.6269C21.3639 22.616 21.3639 22.6038 21.3639 22.5929V22.5699C21.3639 22.5509 21.3571 22.5332 21.3543 22.5142C21.3516 22.4952 21.3543 22.5047 21.3543 22.4993C21.3543 22.4939 21.3543 22.4993 21.3543 22.4898V22.4518C21.3538 22.4482 21.3538 22.4445 21.3543 22.4409C21.3537 22.4278 21.3537 22.4147 21.3543 22.4016C21.3537 22.3984 21.3537 22.3952 21.3543 22.3921V22.3391V22.3134C21.3543 22.2862 21.3543 22.2591 21.3543 22.2319C21.3543 22.2048 21.3543 22.1871 21.3543 22.1654V22.1234C21.3543 22.0949 21.3543 22.0664 21.3612 22.0392C21.3681 22.0121 21.3612 21.9863 21.3708 21.9591C21.3708 21.9456 21.3708 21.932 21.3708 21.9184L21.3831 21.8492C21.3831 21.8289 21.3914 21.8099 21.3968 21.7895C21.3997 21.7735 21.4034 21.7576 21.4078 21.742C21.4078 21.723 21.4188 21.704 21.4229 21.6864L21.4352 21.6484C21.4394 21.6327 21.4445 21.6173 21.4503 21.6022L21.4668 21.5547L21.4928 21.4896C21.501 21.4668 21.5106 21.4446 21.5216 21.4231C21.5353 21.3932 21.549 21.3634 21.5641 21.3349C21.5792 21.3064 21.5792 21.3077 21.586 21.2928L21.6107 21.2507C21.6272 21.2236 21.6436 21.1951 21.6614 21.1693C21.6793 21.1435 21.6834 21.1354 21.6943 21.1191C21.7053 21.1028 21.7451 21.0472 21.7725 21.0132L21.804 20.9766L21.8342 20.9399L21.8986 20.8694C21.9035 20.8629 21.9095 20.8574 21.9164 20.8531C21.9268 20.8408 21.9383 20.8294 21.9507 20.8192C22.0132 20.7575 22.0801 20.7003 22.1509 20.6482L22.2139 20.602L22.2592 20.5735L22.2701 20.5667L22.3044 20.545C22.3373 20.5247 22.3688 20.507 22.4031 20.4894C22.4141 20.4822 22.4255 20.4759 22.4374 20.4704L22.5142 20.4337C22.603 20.3938 22.6947 20.3603 22.7884 20.3333L22.8542 20.3157C22.9104 20.3021 22.968 20.2899 23.0269 20.2804L23.0804 20.2722H23.0996H23.1338H23.1626H23.1996H23.2106H23.2709H23.4327H23.4985C23.5465 20.2722 23.5945 20.2804 23.6356 20.2872L23.6795 20.2939L23.7329 20.3034C23.7713 20.3102 23.8111 20.3197 23.8495 20.3292L23.9098 20.3469C24.0305 20.3808 24.1476 20.4262 24.2594 20.4826L24.3033 20.5057L24.3444 20.5287L24.3869 20.5532L24.428 20.5789C24.4554 20.5952 24.4815 20.6142 24.5075 20.6319L24.5459 20.6604C24.5857 20.6889 24.6241 20.7201 24.6597 20.7513C24.6954 20.7825 24.731 20.8137 24.7639 20.8477L24.7982 20.8816L24.8311 20.9169C24.8423 20.928 24.8528 20.9398 24.8626 20.9522C24.8725 20.9619 24.8816 20.9724 24.89 20.9834C24.927 21.0268 24.9613 21.0729 24.9942 21.1191L25.0326 21.1761C25.045 21.1937 25.0573 21.2141 25.0683 21.2331C25.0792 21.2521 25.1121 21.3077 25.1327 21.3471C25.1327 21.3322 25.1327 21.3172 25.1327 21.3037C25.4836 23.401 27.1564 25.0375 29.2791 25.3602C31.4018 25.6828 33.4935 24.6185 34.4639 22.722C35.4343 20.8255 35.0635 18.5264 33.5449 17.0233L33.5216 17.0043Z" fill="url(#paint0_radial_13803_17)"/>
<path d="M58.9945 27L58.7114 26.7369V18.9802C58.7114 16.5533 57.2567 16.1912 56.3899 16.1912C55.3369 16.1912 53.5722 16.6222 53.5722 19.5114V26.7369L53.289 27H49.7096L49.4265 26.7369V18.9802C49.4265 16.4631 47.8181 16.1912 47.1265 16.1912C46.2717 16.1912 44.2859 16.5145 44.2859 19.5114V26.7369L44.0041 27H40.2831L40 26.7369V13.6954L40.2831 13.4336H42.6991L42.9566 13.5864L43.6846 15.0699L44.1564 15.1325L44.445 14.8205C45.4818 13.6772 47.0047 13.0122 48.6135 13.0001C50.2988 13.0001 51.771 13.7004 52.6581 14.9208L52.8738 15.219L53.3295 15.2352L53.5695 14.9533C54.6328 13.7116 56.2502 12.9917 57.9578 13.0001C60.9737 13.0001 63 15.1526 63 18.3562V26.7356L62.7182 26.9987L58.9945 27Z" fill="#1863D3"/>
<path fill-rule="evenodd" clip-rule="evenodd" d="M65 19.5C65 23.8474 68.5741 27 73.5007 27C78.4259 27 82 23.8474 82 19.5C82 15.1526 78.4273 12 73.5007 12C68.5741 12 65 15.1526 65 19.5ZM70 20.0003C70 17.6445 71.6447 16 74.0007 16V16.0026C76.3185 16.0026 78 17.6855 78 20.0003C78 21.128 77.6007 22.1485 76.8731 22.8743C76.1133 23.6129 75.0761 24.0192 74.0007 23.9993C71.6447 23.9993 70 22.3561 70 20.0003Z" fill="#1863D3"/>
<path fill-rule="evenodd" clip-rule="evenodd" d="M87.9482 25.495C89.0737 26.4847 90.4939 27.018 91.9556 26.9995C96.1011 26.9995 98.9963 23.8884 99 19.4271C99 17.2762 98.2959 15.34 97.0271 13.9741C95.7583 12.6082 93.9568 11.856 91.9556 11.856C90.7909 11.8481 89.6472 12.1842 88.6523 12.8267L88.2577 13.0884C88.1778 13.1405 88.0775 13.1427 87.9957 13.0941C87.9138 13.0455 87.8631 12.9537 87.8631 12.8542V7.8918C87.8631 7.74004 84.2577 6 84.2577 6C84.1891 6 84.1234 6.02899 84.075 6.08055C84.0267 6.13211 83.9997 6.202 84 6.27474V26.225C83.9997 26.2978 84.0267 26.3677 84.075 26.4192C84.1234 26.4708 84.1891 26.4998 84.2577 26.4998H86.6412C86.7437 26.5001 86.8367 26.4359 86.8779 26.3362L87.2799 25.3602C87.313 25.2814 87.3788 25.2236 87.458 25.2038C87.5371 25.184 87.6204 25.2046 87.6831 25.2595L87.9482 25.495ZM88 19.0078C88 16.7228 89.505 15 91.8642 15V15.0013C94.2221 15.0013 96 16.7319 96 19.0078C96 21.2837 94.2275 23 91.8642 23C89.5009 23 88 21.2928 88 19.0078Z" fill="#1863D3"/>
<path d="M106.67 13H102.33L102 13.2664V26.7336L102.33 27H106.67L107 26.7336V13.2664L106.67 13Z" fill="#1863D3"/>
<path d="M110 26.717V6.28298C110 6.1267 110.118 6 110.264 6C110.264 6 114 7.79222 114 7.94854V26.717C114 26.8728 113.882 26.9993 113.737 27H110.264C110.118 27 110 26.8733 110 26.717Z" fill="#1863D3"/>
<path d="M121.954 27C118.64 27 116.439 25.4975 116.004 22.9633C115.99 22.8835 116.011 22.8014 116.062 22.7389C116.113 22.6764 116.188 22.6397 116.268 22.6387H119.633C119.748 22.6374 119.852 22.7122 119.888 22.8236C120.157 23.7184 120.951 24.2459 122.054 24.2459C123.23 24.2459 124.049 23.5425 124.049 22.5353C124.049 21.1453 122.385 20.866 121.048 20.6424C118.56 20.2325 116.133 19.5718 116.133 16.4337C116.133 13.7404 118.414 12 121.947 12C125.006 12 127.142 13.399 127.614 15.6773C127.631 15.7566 127.612 15.8395 127.563 15.9035C127.514 15.9675 127.439 16.0059 127.359 16.0083L124.12 16.0147C124.008 16.0127 123.909 15.9376 123.876 15.8285C123.612 15.0528 122.898 14.6041 121.89 14.6041C120.743 14.6041 119.978 15.2687 119.978 16.2578C119.978 17.565 121.416 17.8249 122.94 18.1016L123.089 18.1275C125.391 18.5412 128 19.0106 128 22.3168C128 25.1549 125.629 26.9884 121.96 26.9897L121.954 27Z" fill="#1863D3"/>
<path fill-rule="evenodd" clip-rule="evenodd" d="M130 19.4877C130 23.7653 133.431 27 137.981 27C141.245 27 144.058 25.3451 145.363 22.7612C145.407 22.6768 145.402 22.5766 145.351 22.4964C145.299 22.4161 145.208 22.367 145.11 22.3666H141.406C141.319 22.368 141.238 22.407 141.185 22.4727C140.502 23.3047 139.257 23.9089 137.981 23.9089C136.052 23.9089 134.26 23.0006 134.094 21.0274C134.086 20.9509 134.112 20.8748 134.166 20.8175C134.219 20.7602 134.295 20.7271 134.376 20.726H145.691C145.842 20.7261 145.967 20.6122 145.974 20.4672C145.992 20.1773 146 19.5589 146 19.3557V19.3169C145.98 15.0769 142.605 12 137.981 12C133.357 12 130 15.1493 130 19.4877ZM134.001 17.7186C134.145 16.0681 136.027 15 137.924 15V15.0024C139.823 15.0024 141.834 16.0693 141.999 17.7162C142.006 17.7886 141.98 17.8607 141.925 17.9147C141.87 17.9687 141.792 17.9996 141.71 18H134.29C134.208 17.9996 134.131 17.969 134.076 17.9155C134.021 17.8621 133.994 17.7907 134.001 17.7186Z" fill="#1863D3"/>
<path d="M153.86 27C150.731 27 148.863 25.2109 148.863 22.2078V16.3141C148.863 16.1659 148.737 16.0457 148.581 16.0457H146.281C146.126 16.0457 146 15.9256 146 15.7774V15.6994C146 15.6314 146.027 15.566 146.076 15.5167L152.687 8H152.988V12.8957C152.988 12.9667 153.017 13.035 153.07 13.0854C153.123 13.1357 153.194 13.164 153.269 13.164H156.635C156.79 13.164 156.916 13.2834 156.917 13.4311V15.7774C156.917 15.9256 156.791 16.0457 156.635 16.0457H153.403C153.247 16.0457 153.121 16.1659 153.121 16.3141V21.3273C153.121 22.6922 154.053 23.5752 155.496 23.5752H156.72C156.875 23.5759 157 23.6958 157 23.8436V26.7316C157 26.8794 156.875 26.9993 156.72 27H153.86Z" fill="#1863D3"/>
<path d="M104.499 11C103.306 10.9993 102.281 10.1567 102.048 8.98727C101.816 7.81783 102.442 6.64707 103.543 6.19066C104.645 5.73426 105.915 6.11925 106.578 7.1103C107.241 8.10134 107.112 9.42258 106.269 10.2663C105.801 10.7376 105.163 11.0018 104.499 11Z" fill="#FF8000"/>
<defs>
<radialGradient id="paint0_radial_13803_17" cx="0" cy="0" r="1" gradientUnits="userSpaceOnUse" gradientTransform="translate(17.4896 16.988) scale(17.3302 16.8351)">
<stop stop-color="#F4B04C"/>
<stop offset="0.66" stop-color="#F49933"/>
<stop offset="1" stop-color="#F48020"/>
</radialGradient>
</defs>
</svg>
