<svg width="12" height="13" viewBox="0 0 12 13" fill="none" xmlns="http://www.w3.org/2000/svg">
<path fill-rule="evenodd" clip-rule="evenodd" d="M10.8001 9.05685V10.6769C10.8014 10.981 10.6743 11.2715 10.4503 11.4771C10.2262 11.6826 9.9258 11.7842 9.62293 11.7569C7.96126 11.5763 6.36511 11.0085 4.96273 10.0991C3.658 9.26997 2.55182 8.16379 1.72273 6.85905C0.810122 5.4503 0.242185 3.84639 0.0649337 2.17725C0.0376493 1.87532 0.138521 1.57583 0.342907 1.35193C0.547294 1.12803 0.836375 1.00034 1.13953 1.00005H2.75953C3.30162 0.994718 3.76366 1.39208 3.83953 1.92885C3.90791 2.44729 4.03472 2.95633 4.21753 3.44625C4.36589 3.84093 4.271 4.28585 3.97453 4.58565L3.28873 5.27145C4.05745 6.62337 5.17682 7.74273 6.52873 8.51145L7.21453 7.82565C7.51434 7.52918 7.95926 7.4343 8.35393 7.58265C8.84386 7.76547 9.3529 7.89228 9.87133 7.96065C10.4143 8.03726 10.8137 8.50864 10.8001 9.05685V9.05685Z" stroke="black" stroke-width="1.08" stroke-linecap="round" stroke-linejoin="round"/>
</svg>
