<svg width="41" height="58" viewBox="0 0 41 58" fill="none" xmlns="http://www.w3.org/2000/svg">
<path fill-rule="evenodd" clip-rule="evenodd" d="M31.8167 1.09476L39.8916 9.07002C40.6062 9.77626 41 10.7148 41 11.7135V54.2613C41 56.3229 39.302 58 37.215 58H3.78544C1.69805 58 0 56.3229 0 54.2613V3.73872C0 1.67709 1.69805 0 3.78544 0H29.1401C30.1513 0 31.1016 0.388962 31.8167 1.09476ZM37.215 54.6016C37.4045 54.6016 37.5591 54.4489 37.5591 54.2613V11.7135C37.5591 11.6228 37.5233 11.5374 37.4583 11.4733L29.3838 3.498C29.3184 3.43384 29.232 3.39844 29.1401 3.39844H3.78544C3.59547 3.39844 3.4409 3.5511 3.4409 3.73872V54.2613C3.4409 54.4489 3.59547 54.6016 3.78544 54.6016H37.215Z" fill="#4C4C4C"/>
<path fill-rule="evenodd" clip-rule="evenodd" d="M10.7393 18H29.2611C31.3226 18 33 19.7063 33 21.8033V47.1967C33 49.2937 31.3226 51 29.2611 51H10.7393C8.67736 51 7 49.2937 7 47.1967V21.8033C7 19.7063 8.67736 18 10.7393 18ZM22.0675 47.5424V42.6131H17.933V47.5424H22.0675ZM10.399 39.1556V29.8444H29.601V39.1556H10.399ZM17.9325 21.4576V26.3869H22.0675V21.4576H17.9325ZM29.601 21.8033V26.3869H25.4665V21.4576H29.2611C29.4488 21.4576 29.601 21.6124 29.601 21.8033ZM14.534 21.4576H10.7393C10.5517 21.4576 10.399 21.6124 10.399 21.8033V26.3869H14.534V21.4576ZM10.399 47.1967V42.6131H14.534V47.5424H10.7393C10.5517 47.5424 10.399 47.3871 10.399 47.1967ZM25.4665 47.5424H29.2611C29.4488 47.5424 29.601 47.3871 29.601 47.1967V42.6131H25.4665V47.5424Z" fill="#4C4C4C"/>
</svg>
