<svg width="63" height="56" viewBox="0 0 63 56" fill="none" xmlns="http://www.w3.org/2000/svg">
<path d="M31.5 12C30.6721 12 30 12.6721 30 13.5C30 14.3279 30.6721 15 31.5 15C32.3279 15 33 14.3279 33 13.5C33 12.6721 32.3279 12 31.5 12Z" fill="#4C4C4C"/>
<path d="M11.5 35C12.3279 35 13 34.3279 13 33.5C13 32.6721 12.3279 32 11.5 32C10.6721 32 10 32.6721 10 33.5C10 34.3279 10.6721 35 11.5 35Z" fill="#4C4C4C"/>
<path fill-rule="evenodd" clip-rule="evenodd" d="M41.3438 0C30.2662 0 21.1742 7.55639 20.471 17.0744C9.92113 17.598 0 25.1244 0 35.3043C0 39.5586 1.70151 43.6806 4.79883 46.9466C5.41166 49.4461 4.66761 52.0953 2.82143 53.9219C2.46959 54.27 2.36433 54.7935 2.55466 55.2486C2.745 55.7033 3.19345 56 3.69141 56C7.20065 56 10.5825 54.6385 13.0954 52.2394C15.5433 53.0649 18.7373 53.5652 21.6562 53.5652C32.7324 53.5652 41.8234 46.0107 42.5286 36.4946C45.1049 36.3815 47.7845 35.9107 49.9046 35.1959C52.4175 37.595 55.7994 38.9565 59.3086 38.9565C59.8065 38.9565 60.255 38.6598 60.4453 38.2052C60.6357 37.7501 60.5304 37.2265 60.1786 36.8784C58.3324 35.0518 57.5883 32.4026 58.2012 29.9031C61.2985 26.6371 63 22.5151 63 18.2609C63 7.68336 52.3146 0 41.3438 0ZM21.6562 51.1304C18.7522 51.1304 15.4429 50.5664 13.2261 49.6938C12.7512 49.5065 12.2086 49.6296 11.863 50.0029C10.3773 51.6098 8.44553 52.7302 6.34076 53.2452C7.50057 51.0467 7.79665 48.455 7.09106 45.9993C7.0353 45.8058 6.93196 45.6289 6.79017 45.4848C3.99854 42.6401 2.46094 39.0245 2.46094 35.3043C2.46094 26.7255 11.2511 19.4783 21.6562 19.4783C31.4817 19.4783 40.1133 26.2381 40.1133 35.3043C40.1133 44.031 31.8336 51.1304 21.6562 51.1304ZM55.9089 28.9558C55.9647 28.7628 56.068 28.5859 56.2098 28.4413C59.0015 25.5966 60.5391 21.981 60.5391 18.2609C60.5391 9.68207 51.7489 2.43478 41.3438 2.43478C31.6303 2.43478 23.6452 8.90265 22.9381 17.0791C26.1662 17.2513 29.3025 18.0716 32.0955 19.4783H51.9258C52.6054 19.4783 53.1562 20.0232 53.1562 20.6957C53.1562 21.3681 52.6054 21.913 51.9258 21.913H35.8759C39.8441 25.1258 42.1652 29.4528 42.5247 34.0565C45.1121 33.93 47.8527 33.4065 49.7739 32.6503C50.2488 32.463 50.7914 32.5866 51.137 32.9594C52.6227 34.5663 54.5545 35.6872 56.6592 36.2017C55.4994 34.0033 55.2033 31.4115 55.9089 28.9558Z" fill="#4C4C4C"/>
<path d="M31.7671 32H16.2329C15.5519 32 15 32.6715 15 33.5C15 34.3285 15.5519 35 16.2329 35H31.7671C32.4481 35 33 34.3285 33 33.5C33 32.6715 32.4481 32 31.7671 32Z" fill="#4C4C4C"/>
<path d="M31.7634 39H11.2366C10.5536 39 10 39.6715 10 40.5C10 41.3285 10.5536 42 11.2366 42H31.7634C32.4464 42 33 41.3285 33 40.5C33 39.6715 32.4464 39 31.7634 39Z" fill="#4C4C4C"/>
<path d="M51.7671 12H36.2329C35.5519 12 35 12.6715 35 13.5C35 14.3285 35.5519 15 36.2329 15H51.7671C52.4481 15 53 14.3285 53 13.5C53 12.6715 52.4481 12 51.7671 12Z" fill="#4C4C4C"/>
</svg>
